<svg width="33" height="34" viewBox="0 0 33 34" fill="none" xmlns="http://www.w3.org/2000/svg">
<path fill-rule="evenodd" clip-rule="evenodd" d="M32.9957 18.0086C31.4817 18.0257 29.6005 18.1056 27.4324 18.3151C26.7429 18.3841 26.0444 18.4658 25.4378 18.5582C25.4114 18.5617 25.3873 18.5721 25.3654 18.587C25.3436 18.602 25.3264 18.6216 25.3137 18.6445C25.301 18.6676 25.2941 18.6928 25.293 18.7192C25.2918 18.7446 25.2965 18.7711 25.3068 18.7952C25.5079 19.2642 25.6147 19.7688 25.6182 20.279C25.6182 26.281 18.2016 27.8729 11.5386 28.0498C9.19101 28.1122 6.96443 27.9608 5.03838 27.6632C7.97331 30.9536 12.2455 33.0255 17.0015 33.0255C25.5134 33.0255 32.4753 26.3893 32.9957 18.0086ZM1.77254 22.0033C1.25566 20.429 0.976074 18.7472 0.976074 17.0001C0.976074 8.14945 8.15091 0.974609 17.0015 0.974609C20.7004 0.974609 24.1066 2.22777 26.8187 4.3327C19.0441 4.45646 12.1284 6.25896 10.4024 9.6107C9.22107 12.1288 12.5385 13.9413 14.6885 15.1159C14.9162 15.2403 15.1309 15.3576 15.3257 15.4678C15.5964 15.621 15.8721 15.7717 16.1467 15.9217C16.8978 16.3322 17.6404 16.7381 18.2487 17.1792C18.2693 17.1953 18.2855 17.2172 18.2935 17.2412C18.3016 17.2665 18.3027 17.2929 18.2969 17.3182C18.29 17.3434 18.2763 17.3665 18.2567 17.3837C18.2372 17.401 18.2131 17.4125 18.1867 17.416C11.8516 18.407 5.4794 20.2446 1.77254 22.0033ZM29.419 6.86908C31.4889 9.40307 32.7985 12.5824 32.9998 16.0591C30.319 16.08 27.1616 16.249 23.7782 16.6166C23.7618 16.6139 23.7458 16.61 23.7303 16.6046C23.6912 16.5909 23.6544 16.569 23.6246 16.5402C22.7175 15.7391 21.7304 15.1551 20.699 14.5448C20.4815 14.4161 20.262 14.2863 20.0409 14.153C19.899 14.0674 19.7175 13.9641 19.5096 13.8458C17.8567 12.9054 14.5397 11.0182 16.3033 9.53376C17.8992 8.19022 22.5894 6.87647 29.1453 6.92932C29.2421 6.93014 29.3352 6.90866 29.419 6.86908ZM9.05797 25.5603L9.05914 25.5615C13.8423 25.3546 20.4098 23.6133 20.4098 20.3422C20.4098 20.0929 20.3753 19.8756 20.3362 19.7067C20.2971 19.5377 20.1305 19.432 19.9616 19.4676C12.329 21.0974 4.67114 23.6064 4.67114 24.8765C4.67114 25.4143 6.94843 25.6511 9.05797 25.5603Z" fill="#FF5432"/>
</svg>
