<svg width="10" height="48" viewBox="0 0 10 48" fill="none" xmlns="http://www.w3.org/2000/svg">
<path fill-rule="evenodd" clip-rule="evenodd" d="M4 0C1.79086 0 0 1.79086 0 4V18.4C0 20.6091 1.79086 22.4 4 22.4H5.6C5.87397 22.4 6.14151 22.3725 6.4 22.32L6.4 22.4C7.28366 22.4 8 23.1163 8 24C8 24.8837 7.28366 25.6 6.4 25.6L6.4 25.68C6.14151 25.6275 5.87397 25.6 5.6 25.6H4C1.79086 25.6 0 27.3909 0 29.6V44C0 46.2091 1.79086 48 4 48H5.6C5.87397 48 6.14151 47.9725 6.4 47.92V48H9.6V44V29.6V18.4V4V0H6.4V0.080014C6.14151 0.027544 5.87397 0 5.6 0H4Z" fill="white"/>
</svg>
